{
  "accessors": [
    {
      "bufferView": 2,
      "componentType": 5126,
      "count": 62931,
      "max": [
        0.2972995936870575,
        0.18089617788791656,
        0.28359395265579224
      ],
      "min": [
        -0.30584922432899475,
        -0.0006808473262935877,
        -0.2616928517818451
      ],
      "type": "VEC3"
    },
    {
      "bufferView": 2,
      "byteOffset": 755172,
      "componentType": 5126,
      "count": 62931,
      "max": [
        0.9999592304229736,
        1.0,
        0.999971866607666
      ],
      "min": [
        -0.9999932050704956,
        -1.0,
        -0.9999780654907227
      ],
      "type": "VEC3"
    },
    {
      "bufferView": 3,
      "componentType": 5126,
      "count": 62931,
      "max": [
        0.9999938607215881,
        0.9999958276748657,
        0.9999905228614807,
        1.0
      ],
      "min": [
        -1.0,
        -0.9999613165855408,
        -0.999940812587738,
        -1.0
      ],
      "type": "VEC4"
    },
    {
      "bufferView": 1,
      "componentType": 5126,
      "count": 62931,
      "max": [
        0.9982757568359375,
        0.9985279440879822
      ],
      "min": [
        0.0012391998898237944,
        0.0012383917346596718
      ],
      "type": "VEC2"
    },
    {
      "bufferView": 0,
      "componentType": 5125,
      "count": 365430,
      "type": "SCALAR"
    },
    {
      "bufferView": 2,
      "byteOffset": 1510344,
      "componentType": 5126,
      "count": 54644,
      "max": [
        0.0964394211769104,
        0.2949560582637787,
        0.024085551500320435
      ],
      "min": [
        -0.10403771698474884,
        -0.00027729570865631104,
        -0.4164896607398987
      ],
      "type": "VEC3"
    },
    {
      "bufferView": 2,
      "byteOffset": 2166072,
      "componentType": 5126,
      "count": 54644,
      "max": [
        0.9999998807907104,
        0.9999819993972778,
        0.9999876022338867
      ],
      "min": [
        -0.9999818801879883,
        -0.9999797344207764,
        -0.9999783039093018
      ],
      "type": "VEC3"
    },
    {
      "bufferView": 3,
      "byteOffset": 1006896,
      "componentType": 5126,
      "count": 54644,
      "max": [
        0.9999670386314392,
        0.9749107956886292,
        0.999978244304657,
        1.0
      ],
      "min": [
        -0.9999808073043823,
        -0.9999791383743286,
        -0.9999361634254456,
        -1.0
      ],
      "type": "VEC4"
    },
    {
      "bufferView": 1,
      "byteOffset": 503448,
      "componentType": 5126,
      "count": 54644,
      "max": [
        0.9990469813346863,
        0.9754564166069031
      ],
      "min": [
        0.0008847415447235107,
        0.0008879993692971766
      ],
      "type": "VEC2"
    },
    {
      "bufferView": 0,
      "byteOffset": 1461720,
      "componentType": 5125,
      "count": 318240,
      "type": "SCALAR"
    }
  ],
  "asset": {
    "extras": {
      "author": "Warkarma (https://sketchfab.com/warkarma)",
      "license": "CC-BY-4.0 (http://creativecommons.org/licenses/by/4.0/)",
      "source": "https://sketchfab.com/3d-models/black-naughty-3753f9c7be1c4248870e8fc77d0b027d",
      "title": "Black & Naughty"
    },
    "generator": "Sketchfab-13.74.0",
    "version": "2.0"
  },
  "bufferViews": [
    {
      "buffer": 0,
      "byteLength": 2734680,
      "name": "floatBufferViews",
      "target": 34963
    },
    {
      "buffer": 0,
      "byteLength": 940600,
      "byteOffset": 2734680,
      "byteStride": 8,
      "name": "floatBufferViews",
      "target": 34962
    },
    {
      "buffer": 0,
      "byteLength": 2821800,
      "byteOffset": 3675280,
      "byteStride": 12,
      "name": "floatBufferViews",
      "target": 34962
    },
    {
      "buffer": 0,
      "byteLength": 1881200,
      "byteOffset": 6497080,
      "byteStride": 16,
      "name": "floatBufferViews",
      "target": 34962
    }
  ],
  "buffers": [
    {
      "byteLength": 8378280,
      "uri": "ltf.bin"
    }
  ],
  "images": [
    {
      "uri": "textures/Pillow_baseColor.png"
    },
    {
      "uri": "textures/Pillow_metallicRoughness.png"
    },
    {
      "uri": "textures/Pillow_normal.png"
    },
    {
      "uri": "textures/material_baseColor.png"
    },
    {
      "uri": "textures/material_metallicRoughness.png"
    },
    {
      "uri": "textures/material_emissive.png"
    },
    {
      "uri": "textures/material_normal.png"
    }
  ],
  "materials": [
    {
      "doubleSided": true,
      "name": "Pillow",
      "normalTexture": {
        "index": 2
      },
      "occlusionTexture": {
        "index": 1
      },
      "pbrMetallicRoughness": {
        "baseColorTexture": {
          "index": 0
        },
        "metallicRoughnessTexture": {
          "index": 1
        }
      }
    },
    {
      "doubleSided": true,
      "emissiveFactor": [
        0.2361208183003079,
        0.2361208183003079,
        0.2361208183003079
      ],
      "emissiveTexture": {
        "index": 5
      },
      "name": "material",
      "normalTexture": {
        "index": 6
      },
      "occlusionTexture": {
        "index": 4
      },
      "pbrMetallicRoughness": {
        "baseColorTexture": {
          "index": 3
        },
        "metallicRoughnessTexture": {
          "index": 4
        }
      }
    }
  ],
  "meshes": [
    {
      "name": "Object_0",
      "primitives": [
        {
          "attributes": {
            "NORMAL": 1,
            "POSITION": 0,
            "TANGENT": 2,
            "TEXCOORD_0": 3
          },
          "indices": 4,
          "material": 0,
          "mode": 4
        }
      ]
    },
    {
      "name": "Object_1",
      "primitives": [
        {
          "attributes": {
            "NORMAL": 6,
            "POSITION": 5,
            "TANGENT": 7,
            "TEXCOORD_0": 8
          },
          "indices": 9,
          "material": 1,
          "mode": 4
        }
      ]
    }
  ],
  "nodes": [
    {
      "children": [
        1
      ],
      "matrix": [
        1.3122634887695313,
        0.0,
        0.0,
        0.0,
        0.0,
        2.9138102792137383e-16,
        -1.3122634887695313,
        0.0,
        0.0,
        1.3122634887695313,
        2.9138102792137383e-16,
        0.0,
        0.0,
        0.0,
        0.0,
        1.0
      ],
      "name": "Sketchfab_model"
    },
    {
      "children": [
        2
      ],
      "name": "root"
    },
    {
      "children": [
        3,
        5
      ],
      "matrix": [
        1.0,
        0.0,
        0.0,
        0.0,
        0.0,
        2.220446049250313e-16,
        1.0,
        0.0,
        0.0,
        -1.0,
        2.220446049250313e-16,
        0.0,
        0.0,
        0.0,
        0.0,
        1.0
      ],
      "name": "GLTF_SceneRootNode"
    },
    {
      "children": [
        4
      ],
      "name": "Pillo_0"
    },
    {
      "mesh": 0,
      "name": "Object_4"
    },
    {
      "children": [
        6
      ],
      "name": "Cat_1"
    },
    {
      "mesh": 1,
      "name": "Object_6"
    }
  ],
  "samplers": [
    {
      "magFilter": 9729,
      "minFilter": 9987,
      "wrapS": 10497,
      "wrapT": 10497
    }
  ],
  "scene": 0,
  "scenes": [
    {
      "name": "Sketchfab_Scene",
      "nodes": [
        0
      ]
    }
  ],
  "textures": [
    {
      "sampler": 0,
      "source": 0
    },
    {
      "sampler": 0,
      "source": 1
    },
    {
      "sampler": 0,
      "source": 2
    },
    {
      "sampler": 0,
      "source": 3
    },
    {
      "sampler": 0,
      "source": 4
    },
    {
      "sampler": 0,
      "source": 5
    },
    {
      "sampler": 0,
      "source": 6
    }
  ]
}
